<?xml version="1.0" encoding="utf-8"?>
<!-- Generator: Adobe Illustrator 17.0.0, SVG Export Plug-In . SVG Version: 6.00 Build 0)  -->
<!DOCTYPE svg PUBLIC "-//W3C//DTD SVG 1.1//EN" "http://www.w3.org/Graphics/SVG/1.1/DTD/svg11.dtd">
<svg version="1.1" id="Layer_1" xmlns="http://www.w3.org/2000/svg" xmlns:xlink="http://www.w3.org/1999/xlink" x="0px" y="0px"
	 width="26.52px" height="23.983px" viewBox="9.24 6.009 26.52 23.983" enable-background="new 9.24 6.009 26.52 23.983"
	 xml:space="preserve">
<path fill="#0A82BA" d="M16.202,18.138c3.429,0.919,14.35,3.845,14.598,3.912c1.341,0.36,2.672-0.466,2.862-1.171
	c0.19-0.705-0.509-2.078-1.889-2.448c-0.096-0.027-2.717-0.731-6.043-1.625L20.236,6.203c-0.077-0.135-0.264-0.219-0.415-0.188
	l-1.32,0.34c-0.152,0.032-0.262,0.184-0.244,0.338l1.039,8.38c-1.474-0.397-2.878-0.773-4.082-1.098l-2.39-4.462
	c-0.068-0.132-0.243-0.209-0.387-0.172l-0.866,0.221C11.429,9.6,11.314,9.752,11.319,9.9c0,0-0.098-0.273,0.271,3.952
	C11.59,13.853,14.937,17.8,16.202,18.138z M9.24,28.551v1.44h26.52v-1.44H9.24z"/>
</svg>
