<?xml version="1.0" encoding="utf-8"?>
<!-- Generator: Adobe Illustrator 17.0.0, SVG Export Plug-In . SVG Version: 6.00 Build 0)  -->
<!DOCTYPE svg PUBLIC "-//W3C//DTD SVG 1.1//EN" "http://www.w3.org/Graphics/SVG/1.1/DTD/svg11.dtd">
<svg version="1.1"
	 id="Layer_1" xmlns:inkscape="http://www.inkscape.org/namespaces/inkscape" xmlns:sodipodi="http://sodipodi.sourceforge.net/DTD/sodipodi-0.dtd" xmlns:svg="http://www.w3.org/2000/svg" xmlns:rdf="http://www.w3.org/1999/02/22-rdf-syntax-ns#" xmlns:dc="http://purl.org/dc/elements/1.1/" xmlns:cc="http://creativecommons.org/ns#"
	 xmlns="http://www.w3.org/2000/svg" xmlns:xlink="http://www.w3.org/1999/xlink" x="0px" y="0px" width="24.693px"
	 height="29.567px" viewBox="10.153 2.833 24.693 29.567" enable-background="new 10.153 2.833 24.693 29.567" xml:space="preserve"
	>
<g transform="translate(0,-952.36218)">
	<path fill="#0A82BA" d="M14.271,955.962c-0.189,0-0.35,0.016-0.514,0.086c-0.175,0.069-0.3,0.168-0.429,0.3
		c-0.113,0.115-0.235,0.23-0.3,0.386c-0.078,0.173-0.129,0.398-0.129,0.6v1.371c-1.515,0-2.743,1.228-2.743,2.743v4.114v1.371
		c-0.008,0.085,0,0.171,0,0.257v14.829c0,1.509,1.228,2.743,2.743,2.743h8.229h2.743H32.1c1.515,0,2.743-1.234,2.743-2.743v-14.829
		c0-0.087,0.008-0.173,0-0.257v-1.371v-4.114c0-1.515-1.227-2.743-2.743-2.743v-1.371c0-0.189-0.016-0.393-0.086-0.557
		c-0.007-0.012,0.007-0.031,0-0.043c-0.069-0.151-0.184-0.27-0.3-0.386c-0.129-0.132-0.253-0.231-0.429-0.3
		c-0.164-0.069-0.368-0.086-0.557-0.086c-0.189,0-0.35,0.016-0.514,0.086c-0.175,0.069-0.3,0.168-0.429,0.3
		c-0.116,0.116-0.231,0.235-0.3,0.386c-0.069,0.167-0.129,0.394-0.129,0.6v1.371h-5.486h-2.743h-5.486v-1.371
		c0-0.379-0.138-0.738-0.386-0.986c-0.129-0.132-0.254-0.231-0.429-0.3C14.665,955.979,14.461,955.962,14.271,955.962
		L14.271,955.962z M12.9,960.591v0.857c0,0.757,0.614,1.371,1.371,1.371c0.757,0,1.371-0.614,1.371-1.371v-0.857
		c0.439,0.392,0.688,0.954,0.686,1.543c0,1.136-0.921,2.057-2.057,2.057s-2.057-0.921-2.057-2.057
		C12.211,961.545,12.461,960.983,12.9,960.591z M29.357,960.591v0.857c0,0.757,0.614,1.371,1.371,1.371
		c0.757,0,1.371-0.614,1.371-1.371v-0.857c0.439,0.392,0.688,0.954,0.686,1.543c-0.005,1.136-0.93,2.053-2.066,2.048
		c-1.129-0.005-2.043-0.919-2.048-2.048C28.669,961.545,28.918,960.983,29.357,960.591z M12.9,969.676h2.743v2.743H12.9V969.676z
		 M17.014,969.676h2.743v2.743h-2.743C17.014,972.419,17.014,969.676,17.014,969.676z M21.129,969.676h2.743v2.743h-2.743V969.676z
		 M25.243,969.676h2.743v2.743h-2.743V969.676z M29.357,969.676H32.1v2.743h-2.743V969.676z M12.9,973.791h2.743v2.743H12.9V973.791
		z M17.014,973.791h2.743v2.743h-2.743C17.014,976.534,17.014,973.791,17.014,973.791z M21.129,973.791h2.743v2.743h-2.743V973.791z
		 M25.243,973.791h2.743v2.743h-2.743V973.791z M29.357,973.791H32.1v2.743h-2.743V973.791z M12.9,977.905h2.743v2.743H12.9V977.905
		L12.9,977.905z M17.014,977.905h2.743v2.743h-2.743L17.014,977.905L17.014,977.905z M21.129,977.905h2.743v2.743h-2.743V977.905
		L21.129,977.905z M25.243,977.905h2.743v2.743h-2.743V977.905L25.243,977.905z M29.357,977.905H32.1v2.743h-2.743V977.905
		L29.357,977.905z"/>
</g>
</svg>
