<?xml version="1.0" encoding="utf-8"?>
<!-- Generator: Adobe Illustrator 17.0.0, SVG Export Plug-In . SVG Version: 6.00 Build 0)  -->
<!DOCTYPE svg PUBLIC "-//W3C//DTD SVG 1.1//EN" "http://www.w3.org/Graphics/SVG/1.1/DTD/svg11.dtd">
<svg version="1.1" id="Layer_1" xmlns="http://www.w3.org/2000/svg" xmlns:xlink="http://www.w3.org/1999/xlink" x="0px" y="0px"
	 width="24.763px" height="19.6px" viewBox="10.119 8.2 24.763 19.6" enable-background="new 10.119 8.2 24.763 19.6"
	 xml:space="preserve">
<path fill="#0A82BA" d="M19.683,12.009c1.591-0.577,3.464-1.257,5.248-1.904l-7.299-0.918C17.499,9.14,17.3,9.184,17.188,9.285
	l-0.93,0.915c-0.111,0.1-0.125,0.257-0.031,0.347L19.683,12.009z M12.847,16.131c1.4,1.603,4.313,1.565,6.082,0.921l2.916-1.061
	l-2.124,4.155c-0.014,0.129,0.098,0.24,0.247,0.246l1.3,0.103c0.151,0.005,0.332-0.088,0.404-0.21l5.919-6.386l5.543-2.017
	c1.303-0.474,1.918-1.913,1.67-2.6c-0.248-0.686-1.609-1.409-2.951-0.922c-0.094,0.033-14.723,5.342-15.894,5.768l-4.741-2.202
	c-0.082-0.044-0.188-0.045-0.278-0.012c-0.053,0.019-0.102,0.051-0.138,0.093l-0.583,0.679c-0.097,0.113-0.103,0.302-0.014,0.42
	C10.205,13.104,10.205,13.104,12.847,16.131z M10.119,26.72v1.08h24.763v-1.08H10.119z"/>
</svg>
